# xmcd
# 
# Track frame offsets:
#     150
#     25943
#     51080
#     79145
#     100099
#     124210
#     144932
#     167836
#     191010
#     218618
# 
# Disc length: 3051
# 
# Revision: 2
# Processed by: cddbd v1.5.2PL0 Copyright (c) Steve Scherf et al.
# Submitted via: fre:ac v1.1beta1pre5
# 
DISCID=830be90a
DTITLE=Tony Macalpine - Chromaticity
DYEAR=2001
DGENRE=Rock
TTITLE0=Christmas Island
TTITLE1=Chromaticity
TTITLE2=City Beneath the Sea
TTITLE3=Digitalis Destructi
TTITLE4=Isis
TTITLE5=Prince of Light
TTITLE6=Still Valley
TTITLE7=Avenger
TTITLE8=Eye of the Soul
TTITLE9=Etude Nr. 8 Op. 10
EXTD=
EXTT0=
EXTT1=
EXTT2=
EXTT3=
EXTT4=
EXTT5=
EXTT6=
EXTT7=
EXTT8=
EXTT9=
PLAYORDER=
